<svg width="12" height="10" viewBox="0 0 20 18" fill="none" xmlns="http://www.w3.org/2000/svg">
<path d="M17.0172 7.8877L17.841 8.6248C18.1898 8.93691 18.1898 9.4416 17.841 9.75039L10.6307 16.2051C10.2818 16.5172 9.71777 16.5172 9.37266 16.2051L2.15859 9.75039C1.80977 9.43828 1.80977 8.93359 2.15859 8.6248L2.98242 7.8877C3.33496 7.57227 3.91016 7.57891 4.25527 7.90098L8.51543 11.902V2.35938C8.51543 1.91777 8.9125 1.5625 9.40606 1.5625H10.5936C11.0871 1.5625 11.4842 1.91777 11.4842 2.35938V11.902L15.7443 7.90098C16.0895 7.57559 16.6646 7.56895 17.0172 7.8877Z" fill="#37B9F1"/>
</svg>
