<svg width="31" height="31" viewBox="0 0 31 31" fill="none" xmlns="http://www.w3.org/2000/svg">
<g id="testEvent">
<g id="event">
<g id="Group 120">
<g id="EVENT">
<g id="Group 119">
<path id="Vector" d="M16 26V17.0901" stroke="black"/>
<g id="Group 106">
<g id="event_2">
<path d="M4 7C4 6.44771 4.44772 6 5 6H26C26.5523 6 27 6.44772 27 7V16.1765C27 16.7288 26.5523 17.1765 26 17.1765H5C4.44772 17.1765 4 16.7288 4 16.1765V7Z" fill="#DB2B42"/>
</g>
<g id="Group 104">
<path id="Event" d="M6.44247 14V8.90909H9.87287V9.79652H7.51882V11.0096H9.69638V11.897H7.51882V13.1126H9.88281V14H6.44247ZM14.2684 10.1818L12.9335 14H11.7403L10.4055 10.1818H11.5241L12.317 12.9137H12.3568L13.1473 10.1818H14.2684ZM16.4273 14.0746C16.0345 14.0746 15.6965 13.995 15.4131 13.8359C15.1314 13.6752 14.9143 13.4482 14.7618 13.1548C14.6093 12.8598 14.5331 12.511 14.5331 12.1083C14.5331 11.7156 14.6093 11.3709 14.7618 11.0742C14.9143 10.7776 15.1289 10.5464 15.4056 10.3807C15.684 10.215 16.0105 10.1321 16.385 10.1321C16.6369 10.1321 16.8714 10.1727 17.0885 10.2539C17.3073 10.3335 17.4978 10.4536 17.6602 10.6143C17.8243 10.7751 17.9519 10.9773 18.0431 11.2209C18.1342 11.4628 18.1798 11.7462 18.1798 12.071V12.3619H14.9557V11.7056H17.183C17.183 11.5531 17.1498 11.4181 17.0835 11.3004C17.0173 11.1828 16.9253 11.0908 16.8076 11.0245C16.6916 10.9566 16.5566 10.9226 16.4024 10.9226C16.2417 10.9226 16.0992 10.9599 15.9749 11.0344C15.8522 11.1074 15.7561 11.206 15.6865 11.3303C15.6169 11.4529 15.5813 11.5896 15.5796 11.7404V12.3643C15.5796 12.5533 15.6144 12.7165 15.684 12.854C15.7553 12.9916 15.8556 13.0977 15.9848 13.1722C16.1141 13.2468 16.2674 13.2841 16.4447 13.2841C16.5624 13.2841 16.6701 13.2675 16.7678 13.2344C16.8656 13.2012 16.9493 13.1515 17.0189 13.0852C17.0885 13.0189 17.1415 12.9377 17.178 12.8416L18.1574 12.9062C18.1077 13.1416 18.0058 13.3471 17.8517 13.5227C17.6992 13.6967 17.502 13.8326 17.26 13.9304C17.0197 14.0265 16.7422 14.0746 16.4273 14.0746ZM19.9298 11.7926V14H18.8708V10.1818H19.8801V10.8555H19.9248C20.0093 10.6334 20.151 10.4577 20.3499 10.3285C20.5487 10.1976 20.7899 10.1321 21.0732 10.1321C21.3384 10.1321 21.5696 10.1901 21.7668 10.3061C21.964 10.4221 22.1173 10.5878 22.2267 10.8033C22.336 11.017 22.3907 11.2723 22.3907 11.5689V14H21.3318V11.7578C21.3334 11.5241 21.2738 11.3419 21.1528 11.2109C21.0318 11.0784 20.8653 11.0121 20.6531 11.0121C20.5106 11.0121 20.3847 11.0427 20.2753 11.104C20.1676 11.1654 20.0831 11.2549 20.0218 11.3725C19.9621 11.4885 19.9314 11.6286 19.9298 11.7926ZM25.2562 10.1818V10.9773H22.9569V10.1818H25.2562ZM23.4789 9.26705H24.5378V12.8267C24.5378 12.9245 24.5527 13.0007 24.5826 13.0554C24.6124 13.1084 24.6538 13.1457 24.7069 13.1673C24.7615 13.1888 24.8245 13.1996 24.8958 13.1996C24.9455 13.1996 24.9952 13.1954 25.0449 13.1871C25.0946 13.1772 25.1328 13.1697 25.1593 13.1648L25.3258 13.9528C25.2728 13.9693 25.1982 13.9884 25.1021 14.0099C25.006 14.0331 24.8891 14.0472 24.7516 14.0522C24.4964 14.0621 24.2727 14.0282 24.0804 13.9503C23.8899 13.8724 23.7415 13.7514 23.6355 13.5874C23.5294 13.4233 23.4772 13.2161 23.4789 12.9659V9.26705Z" fill="white"/>
<path id="Vector_2" d="M12 26H20" stroke="black"/>
</g>
</g>
</g>
</g>
</g>
</g>
</g>
</svg>
