<svg width="31" height="31" viewBox="0 0 31 31" fill="none" xmlns="http://www.w3.org/2000/svg">
<path d="M15.5 26V18" stroke="black"/>
<path d="M4 9C4 8.44771 4.44772 8 5 8H26C26.5523 8 27 8.44772 27 9V18C27 18.5523 26.5523 19 26 19H5C4.44772 19 4 18.5523 4 18V9Z" fill="#DB2B42"/>
<path d="M5.94247 16V10.9091H9.37287V11.7965H7.01882V13.0096H9.19638V13.897H7.01882V15.1126H9.38281V16H5.94247ZM13.7684 12.1818L12.4335 16H11.2403L9.90545 12.1818H11.0241L11.817 14.9137H11.8568L12.6473 12.1818H13.7684ZM15.9273 16.0746C15.5345 16.0746 15.1965 15.995 14.9131 15.8359C14.6314 15.6752 14.4143 15.4482 14.2618 15.1548C14.1093 14.8598 14.0331 14.511 14.0331 14.1083C14.0331 13.7156 14.1093 13.3709 14.2618 13.0742C14.4143 12.7776 14.6289 12.5464 14.9056 12.3807C15.184 12.215 15.5105 12.1321 15.885 12.1321C16.1369 12.1321 16.3714 12.1727 16.5885 12.2539C16.8073 12.3335 16.9978 12.4536 17.1602 12.6143C17.3243 12.7751 17.4519 12.9773 17.5431 13.2209C17.6342 13.4628 17.6798 13.7462 17.6798 14.071V14.3619H14.4557V13.7056H16.683C16.683 13.5531 16.6498 13.4181 16.5835 13.3004C16.5173 13.1828 16.4253 13.0908 16.3076 13.0245C16.1916 12.9566 16.0566 12.9226 15.9024 12.9226C15.7417 12.9226 15.5992 12.9599 15.4749 13.0344C15.3522 13.1074 15.2561 13.206 15.1865 13.3303C15.1169 13.4529 15.0813 13.5896 15.0796 13.7404V14.3643C15.0796 14.5533 15.1144 14.7165 15.184 14.854C15.2553 14.9916 15.3556 15.0977 15.4848 15.1722C15.6141 15.2468 15.7674 15.2841 15.9447 15.2841C16.0624 15.2841 16.1701 15.2675 16.2678 15.2344C16.3656 15.2012 16.4493 15.1515 16.5189 15.0852C16.5885 15.0189 16.6415 14.9377 16.678 14.8416L17.6574 14.9062C17.6077 15.1416 17.5058 15.3471 17.3517 15.5227C17.1992 15.6967 17.002 15.8326 16.76 15.9304C16.5197 16.0265 16.2422 16.0746 15.9273 16.0746ZM19.4298 13.7926V16H18.3708V12.1818H19.3801V12.8555H19.4248C19.5093 12.6334 19.651 12.4577 19.8499 12.3285C20.0487 12.1976 20.2899 12.1321 20.5732 12.1321C20.8384 12.1321 21.0696 12.1901 21.2668 12.3061C21.464 12.4221 21.6173 12.5878 21.7267 12.8033C21.836 13.017 21.8907 13.2723 21.8907 13.5689V16H20.8318V13.7578C20.8334 13.5241 20.7738 13.3419 20.6528 13.2109C20.5318 13.0784 20.3653 13.0121 20.1531 13.0121C20.0106 13.0121 19.8847 13.0427 19.7753 13.104C19.6676 13.1654 19.5831 13.2549 19.5218 13.3725C19.4621 13.4885 19.4314 13.6286 19.4298 13.7926ZM24.7562 12.1818V12.9773H22.4569V12.1818H24.7562ZM22.9789 11.267H24.0378V14.8267C24.0378 14.9245 24.0527 15.0007 24.0826 15.0554C24.1124 15.1084 24.1538 15.1457 24.2069 15.1673C24.2615 15.1888 24.3245 15.1996 24.3958 15.1996C24.4455 15.1996 24.4952 15.1954 24.5449 15.1871C24.5946 15.1772 24.6328 15.1697 24.6593 15.1648L24.8258 15.9528C24.7728 15.9693 24.6982 15.9884 24.6021 16.0099C24.506 16.0331 24.3891 16.0472 24.2516 16.0522C23.9964 16.0621 23.7727 16.0282 23.5804 15.9503C23.3899 15.8724 23.2415 15.7514 23.1355 15.5874C23.0294 15.4233 22.9772 15.2161 22.9789 14.9659V11.267Z" fill="white"/>
<path d="M12 26H19" stroke="black"/>
</svg>
