<svg width="30" height="50" viewBox="0 0 30 50" fill="none" xmlns="http://www.w3.org/2000/svg">
<path d="M15 50L23.6603 27.0408H6.33975L15 50Z" fill="#0096A6"/>
<path d="M0 15C0 6.71573 6.71573 0 15 0V0C23.2843 0 30 6.71573 30 15V15.6122C30 23.8965 23.2843 30.6122 15 30.6122V30.6122C6.71573 30.6122 0 23.8965 0 15.6122V15Z" fill="#0096A6"/>
<g clip-path="url(#clip0_1346_949)">
<path d="M15.5 25V17" stroke="black"/>
</g>
<path d="M4 8C4 7.44772 4.44772 7 5 7H26C26.5523 7 27 7.44772 27 8V16C27 16.5523 26.5523 17 26 17H5C4.44772 17 4 16.5523 4 16V8Z" fill="#DB2B42"/>
<path d="M5.94247 15V9.90909H9.37287V10.7965H7.01882V12.0096H9.19638V12.897H7.01882V14.1126H9.38281V15H5.94247ZM13.7684 11.1818L12.4335 15H11.2403L9.90545 11.1818H11.0241L11.817 13.9137H11.8568L12.6473 11.1818H13.7684ZM15.9273 15.0746C15.5345 15.0746 15.1965 14.995 14.9131 14.8359C14.6314 14.6752 14.4143 14.4482 14.2618 14.1548C14.1093 13.8598 14.0331 13.511 14.0331 13.1083C14.0331 12.7156 14.1093 12.3709 14.2618 12.0742C14.4143 11.7776 14.6289 11.5464 14.9056 11.3807C15.184 11.215 15.5105 11.1321 15.885 11.1321C16.1369 11.1321 16.3714 11.1727 16.5885 11.2539C16.8073 11.3335 16.9978 11.4536 17.1602 11.6143C17.3243 11.7751 17.4519 11.9773 17.5431 12.2209C17.6342 12.4628 17.6798 12.7462 17.6798 13.071V13.3619H14.4557V12.7056H16.683C16.683 12.5531 16.6498 12.4181 16.5835 12.3004C16.5173 12.1828 16.4253 12.0908 16.3076 12.0245C16.1916 11.9566 16.0566 11.9226 15.9024 11.9226C15.7417 11.9226 15.5992 11.9599 15.4749 12.0344C15.3522 12.1074 15.2561 12.206 15.1865 12.3303C15.1169 12.4529 15.0813 12.5896 15.0796 12.7404V13.3643C15.0796 13.5533 15.1144 13.7165 15.184 13.854C15.2553 13.9916 15.3556 14.0977 15.4848 14.1722C15.6141 14.2468 15.7674 14.2841 15.9447 14.2841C16.0624 14.2841 16.1701 14.2675 16.2678 14.2344C16.3656 14.2012 16.4493 14.1515 16.5189 14.0852C16.5885 14.0189 16.6415 13.9377 16.678 13.8416L17.6574 13.9062C17.6077 14.1416 17.5058 14.3471 17.3517 14.5227C17.1992 14.6967 17.002 14.8326 16.76 14.9304C16.5197 15.0265 16.2422 15.0746 15.9273 15.0746ZM19.4298 12.7926V15H18.3708V11.1818H19.3801V11.8555H19.4248C19.5093 11.6334 19.651 11.4577 19.8499 11.3285C20.0487 11.1976 20.2899 11.1321 20.5732 11.1321C20.8384 11.1321 21.0696 11.1901 21.2668 11.3061C21.464 11.4221 21.6173 11.5878 21.7267 11.8033C21.836 12.017 21.8907 12.2723 21.8907 12.5689V15H20.8318V12.7578C20.8334 12.5241 20.7738 12.3419 20.6528 12.2109C20.5318 12.0784 20.3653 12.0121 20.1531 12.0121C20.0106 12.0121 19.8847 12.0427 19.7753 12.104C19.6676 12.1654 19.5831 12.2549 19.5218 12.3725C19.4621 12.4885 19.4314 12.6286 19.4298 12.7926ZM24.7562 11.1818V11.9773H22.4569V11.1818H24.7562ZM22.9789 10.267H24.0378V13.8267C24.0378 13.9245 24.0527 14.0007 24.0826 14.0554C24.1124 14.1084 24.1538 14.1457 24.2069 14.1673C24.2615 14.1888 24.3245 14.1996 24.3958 14.1996C24.4455 14.1996 24.4952 14.1954 24.5449 14.1871C24.5946 14.1772 24.6328 14.1697 24.6593 14.1648L24.8258 14.9528C24.7728 14.9693 24.6982 14.9884 24.6021 15.0099C24.506 15.0331 24.3891 15.0472 24.2516 15.0522C23.9964 15.0621 23.7727 15.0282 23.5804 14.9503C23.3899 14.8724 23.2415 14.7514 23.1355 14.5874C23.0294 14.4233 22.9772 14.2161 22.9789 13.9659V10.267Z" fill="white"/>
<path d="M12 25H19" stroke="black"/>
<defs>
<clipPath id="clip0_1346_949">
<rect width="8" height="1" fill="white" transform="translate(15 25) rotate(-90)"/>
</clipPath>
</defs>
</svg>
