<svg width="30" height="30" viewBox="0 0 30 30" fill="none" xmlns="http://www.w3.org/2000/svg">
<path d="M14.5 24.4723V16.0278" stroke="black"/>
<path d="M3 7C3 6.44772 3.44772 6 4 6H25C25.5523 6 26 6.44772 26 7V15.5556C26 16.1078 25.5523 16.5556 25 16.5556H4C3.44772 16.5556 3 16.1078 3 15.5556V7Z" fill="#DB2B42"/>
<path d="M4.94247 14.0555V8.96463H8.37287V9.85206H6.01882V11.0651H8.19638V11.9526H6.01882V13.1681H8.38281V14.0555H4.94247ZM12.7684 10.2374L11.4335 14.0555H10.2403L8.90545 10.2374H10.0241L10.817 12.9692H10.8568L11.6473 10.2374H12.7684ZM14.9273 14.1301C14.5345 14.1301 14.1965 14.0506 13.9131 13.8915C13.6314 13.7307 13.4143 13.5037 13.2618 13.2104C13.1093 12.9154 13.0331 12.5666 13.0331 12.1639C13.0331 11.7711 13.1093 11.4264 13.2618 11.1298C13.4143 10.8331 13.6289 10.6019 13.9056 10.4362C14.184 10.2705 14.5105 10.1876 14.885 10.1876C15.1369 10.1876 15.3714 10.2282 15.5885 10.3094C15.8073 10.389 15.9978 10.5091 16.1602 10.6699C16.3243 10.8306 16.4519 11.0328 16.5431 11.2764C16.6342 11.5184 16.6798 11.8018 16.6798 12.1266V12.4174H13.4557V11.7612H15.683C15.683 11.6087 15.6498 11.4736 15.5835 11.356C15.5173 11.2383 15.4253 11.1463 15.3076 11.08C15.1916 11.0121 15.0566 10.9781 14.9024 10.9781C14.7417 10.9781 14.5992 11.0154 14.4749 11.09C14.3522 11.1629 14.2561 11.2615 14.1865 11.3858C14.1169 11.5084 14.0813 11.6451 14.0796 11.796V12.4199C14.0796 12.6088 14.1144 12.772 14.184 12.9096C14.2553 13.0471 14.3556 13.1532 14.4848 13.2278C14.6141 13.3023 14.7674 13.3396 14.9447 13.3396C15.0624 13.3396 15.1701 13.3231 15.2678 13.2899C15.3656 13.2568 15.4493 13.2071 15.5189 13.1408C15.5885 13.0745 15.6415 12.9933 15.678 12.8972L16.6574 12.9618C16.6077 13.1971 16.5058 13.4026 16.3517 13.5783C16.1992 13.7523 16.002 13.8882 15.76 13.9859C15.5197 14.0821 15.2422 14.1301 14.9273 14.1301ZM18.4298 11.8482V14.0555H17.3708V10.2374H18.3801V10.911H18.4248C18.5093 10.6889 18.651 10.5133 18.8499 10.384C19.0487 10.2531 19.2899 10.1876 19.5732 10.1876C19.8384 10.1876 20.0696 10.2456 20.2668 10.3616C20.464 10.4777 20.6173 10.6434 20.7267 10.8588C20.836 11.0726 20.8907 11.3278 20.8907 11.6244V14.0555H19.8318V11.8134C19.8334 11.5797 19.7738 11.3974 19.6528 11.2665C19.5318 11.1339 19.3653 11.0676 19.1531 11.0676C19.0106 11.0676 18.8847 11.0983 18.7753 11.1596C18.6676 11.2209 18.5831 11.3104 18.5218 11.4281C18.4621 11.5441 18.4314 11.6841 18.4298 11.8482ZM23.7562 10.2374V11.0328H21.4569V10.2374H23.7562ZM21.9789 9.32259H23.0378V12.8822C23.0378 12.98 23.0527 13.0563 23.0826 13.1109C23.1124 13.164 23.1538 13.2013 23.2069 13.2228C23.2615 13.2443 23.3245 13.2551 23.3958 13.2551C23.4455 13.2551 23.4952 13.251 23.5449 13.2427C23.5946 13.2327 23.6328 13.2253 23.6593 13.2203L23.8258 14.0083C23.7728 14.0249 23.6982 14.0439 23.6021 14.0655C23.506 14.0887 23.3891 14.1028 23.2516 14.1077C22.9964 14.1177 22.7727 14.0837 22.5804 14.0058C22.3899 13.9279 22.2415 13.807 22.1355 13.6429C22.0294 13.4788 21.9772 13.2717 21.9789 13.0215V9.32259Z" fill="white"/>
<path d="M11 25H18" stroke="black"/>
</svg>
