<svg width="407" height="580" viewBox="0 0 707 580" fill="none" xmlns="http://www.w3.org/2000/svg">
<path d="M78.9082 515.618C78.034 534.095 74.282 552.368 67.7628 569.9C67.6179 570.307 67.458 570.708 67.3022 571.115L29.2932 570.568C29.3395 570.202 29.388 569.794 29.4358 569.349C32.4338 543.074 20.745 384.636 3.75739 357C5.24884 359.243 83.329 432.057 78.9082 515.618Z" fill="#6C63FF"/>
<path d="M75.0963 570.006C74.7712 570.41 74.4336 570.814 74.0879 571.212L45.5725 570.802C45.7948 570.457 46.0525 570.052 46.3511 569.592C51.1968 561.983 65.5438 539.228 78.9051 515.618C93.2584 490.244 106.492 463.885 105.586 454.263C105.881 456.434 114.341 522.623 75.0963 570.006Z" fill="#6C63FF"/>
<path d="M472.199 452L472.08 451.989L286.72 434.754L118.165 450.426C113.765 450.835 109.382 449.478 105.981 446.652C102.58 443.827 100.439 439.765 100.031 435.36C99.983 434.847 99.9592 434.333 99.9591 433.817V32.5683C99.9421 28.4066 101.487 24.3902 104.288 21.3144C107.088 18.2385 110.941 16.3274 115.083 15.9595L286.72 0L286.839 0.0112713L472.199 17.2463L640.752 1.57383C645.153 1.16461 649.536 2.52205 652.937 5.34751C656.338 8.17296 658.479 12.235 658.887 16.64C658.935 17.1529 658.959 17.6671 658.959 18.1827V419.431C658.976 423.593 657.431 427.61 654.63 430.685C651.83 433.761 647.977 435.673 643.835 436.041L472.199 452Z" fill="#3F3D56"/>
<path d="M358.345 148.442C322.464 122.286 284.712 97.483 246.145 74.7269L244.21 73.5849V150.765H361.531L358.345 148.442ZM246.773 148.198V78.0822C283.462 99.8055 319.388 123.376 353.647 148.198L246.773 148.198ZM539.935 307.055C524.418 290.907 508.498 275.127 492.178 259.715C487.678 255.461 483.151 251.242 478.596 247.057C450.797 221.497 422.084 197.188 392.457 174.13L392.111 173.861H244.21V309.23H542.025L539.935 307.055ZM246.773 306.664V176.427H391.233C419.801 198.67 447.595 222.158 474.615 246.89C479.307 251.182 483.967 255.508 488.595 259.869C504.772 275.087 520.572 290.685 535.993 306.664H246.773ZM539.935 307.055C524.418 290.907 508.498 275.127 492.178 259.715C487.678 255.461 483.151 251.242 478.596 247.057C450.797 221.497 422.084 197.188 392.457 174.13L392.111 173.861H244.21V309.23H542.025L539.935 307.055ZM246.773 306.664V176.427H391.233C419.801 198.67 447.595 222.158 474.615 246.89C479.307 251.182 483.967 255.508 488.595 259.869C504.772 275.087 520.572 290.685 535.993 306.664H246.773ZM358.345 148.442C322.464 122.286 284.712 97.483 246.145 74.7269L244.21 73.5849V150.765H361.531L358.345 148.442ZM246.773 148.198V78.0822C283.462 99.8055 319.388 123.376 353.647 148.198L246.773 148.198ZM358.345 148.442C322.464 122.286 284.712 97.483 246.145 74.7269L244.21 73.5849V150.765H361.531L358.345 148.442ZM246.773 148.198V78.0822C283.462 99.8055 319.388 123.376 353.647 148.198L246.773 148.198ZM539.935 307.055C524.418 290.907 508.498 275.127 492.178 259.715C487.678 255.461 483.151 251.242 478.596 247.057C450.797 221.497 422.084 197.188 392.457 174.13L392.111 173.861H244.21V309.23H542.025L539.935 307.055ZM246.773 306.664V176.427H391.233C419.801 198.67 447.595 222.158 474.615 246.89C479.307 251.182 483.967 255.508 488.595 259.869C504.772 275.087 520.572 290.685 535.993 306.664H246.773ZM117.312 332.327V334.893H218.571V372.103H117.312V374.67H221.135V332.327H117.312ZM244.21 397.766V423.768L246.773 423.531V400.332H641.604V397.766L244.21 397.766ZM641.604 334.893V332.327H244.21V374.67H641.604V372.103H246.773V334.893L641.604 334.893ZM402.174 148.198C352.988 110.221 301.044 75.9629 246.773 45.709V19.7258L244.21 19.9632V46.1475L246.184 48.3202C300.233 78.4917 351.967 112.644 400.956 150.495L401.302 150.765H641.604V148.198L402.174 148.198ZM218.571 148.198H117.312V150.765H221.135V22.106L218.571 22.3434L218.571 148.198ZM641.604 173.861H430.351L433.113 176.132C459.123 197.554 484.661 220.274 509.727 244.292C513.291 247.705 516.842 251.146 520.38 254.614C537.993 271.84 555.263 289.629 572.189 307.979L574.302 309.23H641.604V306.664H574.464C557.722 288.495 540.617 270.852 523.149 253.735C519.655 250.309 516.15 246.907 512.631 243.528C488.107 219.976 463.061 197.609 437.491 176.427H641.604V173.861ZM117.312 397.766V400.332H218.571V426.148L221.135 425.911V397.766H117.312ZM117.312 173.861V176.427H218.571V306.664H117.312V309.23H221.135V173.861H117.312ZM358.345 148.442C322.464 122.286 284.712 97.483 246.145 74.7269L244.21 73.5849V150.765H361.531L358.345 148.442ZM246.773 148.198V78.0822C283.462 99.8055 319.388 123.376 353.647 148.198L246.773 148.198ZM539.935 307.055C524.418 290.907 508.498 275.127 492.178 259.715C487.678 255.461 483.151 251.242 478.596 247.057C450.797 221.497 422.084 197.188 392.457 174.13L392.111 173.861H244.21V309.23H542.025L539.935 307.055ZM246.773 306.664V176.427H391.233C419.801 198.67 447.595 222.158 474.615 246.89C479.307 251.182 483.967 255.508 488.595 259.869C504.772 275.087 520.572 290.685 535.993 306.664H246.773ZM358.345 148.442C322.464 122.286 284.712 97.483 246.145 74.7269L244.21 73.5849V150.765H361.531L358.345 148.442ZM246.773 148.198V78.0822C283.462 99.8055 319.388 123.376 353.647 148.198L246.773 148.198ZM539.935 307.055C524.418 290.907 508.498 275.127 492.178 259.715C487.678 255.461 483.151 251.242 478.596 247.057C450.797 221.497 422.084 197.188 392.457 174.13L392.111 173.861H244.21V309.23H542.025L539.935 307.055ZM246.773 306.664V176.427H391.233C419.801 198.67 447.595 222.158 474.615 246.89C479.307 251.182 483.967 255.508 488.595 259.869C504.772 275.087 520.572 290.685 535.993 306.664H246.773Z" fill="white"/>
<path d="M386.265 168.875C386.265 201.372 327.48 273.764 327.48 273.764C327.48 273.764 268.695 201.372 268.695 168.875C268.695 153.27 274.889 138.304 285.913 127.269C296.937 116.234 311.889 110.035 327.48 110.035C343.071 110.035 358.023 116.234 369.047 127.269C380.072 138.304 386.265 153.27 386.265 168.875V168.875Z" fill="#6C63FF"/>
<path d="M354.354 166.317C354.354 171.637 352.777 176.837 349.825 181.261C346.872 185.684 342.675 189.132 337.764 191.168C332.854 193.203 327.451 193.736 322.238 192.698C317.025 191.66 312.237 189.099 308.478 185.337C304.72 181.575 302.161 176.782 301.124 171.564C300.087 166.347 300.619 160.938 302.653 156.023C304.687 151.108 308.131 146.907 312.551 143.952C316.97 140.996 322.166 139.418 327.481 139.418C331.01 139.417 334.505 140.111 337.766 141.463C341.027 142.814 343.991 144.795 346.486 147.293C348.982 149.791 350.961 152.757 352.311 156.021C353.661 159.285 354.355 162.784 354.354 166.317V166.317Z" fill="white"/>
<path d="M327.479 316.231C336.231 316.231 343.325 309.13 343.325 300.37C343.325 291.61 336.231 284.509 327.479 284.509C318.727 284.509 311.633 291.61 311.633 300.37C311.633 309.13 318.727 316.231 327.479 316.231Z" fill="#6C63FF"/>
<path d="M479.31 101.254C492.249 101.254 502.738 90.7546 502.738 77.8031C502.738 64.8516 492.249 54.3523 479.31 54.3523C466.37 54.3523 455.881 64.8516 455.881 77.8031C455.881 90.7546 466.37 101.254 479.31 101.254Z" fill="#FF6584"/>
<path d="M552.779 150.07H437.845C437.701 150.072 437.557 150.06 437.415 150.036L491.774 55.7902C492.106 55.2032 492.587 54.7149 493.169 54.3752C493.751 54.0355 494.413 53.8564 495.086 53.8564C495.76 53.8564 496.422 54.0355 497.004 54.3752C497.586 54.7149 498.067 55.2032 498.399 55.7902L534.881 119.036L536.628 122.063L552.779 150.07Z" fill="white"/>
<path opacity="0.2" d="M552.779 150.07H513.537L532.801 122.062L534.187 120.045L534.88 119.036L536.628 122.062L552.779 150.07Z" fill="black"/>
<path d="M616.774 150.07H517.365L536.629 122.063L538.015 120.045L563.117 83.5462C564.763 81.1541 568.722 81.0051 570.657 83.095C570.787 83.2376 570.907 83.3883 571.018 83.5462L616.774 150.07Z" fill="white"/>
<path d="M624.151 282.925C630.7 282.925 636.008 277.611 636.008 271.056C636.008 264.501 630.7 259.187 624.151 259.187C617.602 259.187 612.293 264.501 612.293 271.056C612.293 277.611 617.602 282.925 624.151 282.925Z" fill="white"/>
<path d="M625.294 306.805H622.865L623.972 269.268L625.294 306.805Z" fill="#CBCBCB"/>
<path d="M624.186 276.383L626.794 272.771L624.151 277.276L623.865 276.776L624.186 276.383Z" fill="#CBCBCB"/>
<path d="M623.901 280.029L621.293 276.418L623.936 280.922L624.222 280.422L623.901 280.029Z" fill="#CBCBCB"/>
<path d="M590.435 271.536C600.107 271.536 607.948 263.687 607.948 254.006C607.948 244.325 600.107 236.477 590.435 236.477C580.763 236.477 572.922 244.325 572.922 254.006C572.922 263.687 580.763 271.536 590.435 271.536Z" fill="white"/>
<path d="M592.122 306.806H588.535L590.171 251.366L592.122 306.806Z" fill="#CBCBCB"/>
<path d="M590.487 261.873L594.337 256.541L590.434 263.193L590.013 262.454L590.487 261.873Z" fill="#CBCBCB"/>
<path d="M590.066 267.258L586.215 261.926L590.119 268.578L590.54 267.84L590.066 267.258Z" fill="#CBCBCB"/>
<path d="M183.842 282.925C190.391 282.925 195.7 277.611 195.7 271.056C195.7 264.501 190.391 259.187 183.842 259.187C177.293 259.187 171.984 264.501 171.984 271.056C171.984 277.611 177.293 282.925 183.842 282.925Z" fill="white"/>
<path d="M184.985 306.805H182.557L183.664 269.268L184.985 306.805Z" fill="#CBCBCB"/>
<path d="M183.878 276.383L186.485 272.771L183.842 277.276L183.557 276.776L183.878 276.383Z" fill="#CBCBCB"/>
<path d="M183.592 280.029L180.984 276.418L183.628 280.922L183.913 280.422L183.592 280.029Z" fill="#CBCBCB"/>
<path d="M150.126 271.536C159.798 271.536 167.639 263.687 167.639 254.006C167.639 244.325 159.798 236.477 150.126 236.477C140.454 236.477 132.613 244.325 132.613 254.006C132.613 263.687 140.454 271.536 150.126 271.536Z" fill="#DBD2D2"/>
<path d="M151.813 306.806H148.227L149.862 251.366L151.813 306.806Z" fill="#CBCBCB"/>
<path d="M150.179 261.873L154.029 256.541L150.126 263.193L149.704 262.454L150.179 261.873Z" fill="#CBCBCB"/>
<path d="M149.757 267.258L145.906 261.926L149.81 268.578L150.232 267.84L149.757 267.258Z" fill="#CBCBCB"/>
<path d="M608.384 528.535C610.172 512.053 620.973 495.601 638.161 489.846C631.81 506.917 632.346 525.467 639.676 542.215C642.529 548.665 646.445 555.57 644.128 562.193C642.686 566.313 638.961 569.528 634.753 571.582C630.544 573.636 625.838 574.679 621.191 575.702L620.291 576.411C612.434 561.448 606.597 545.018 608.384 528.535Z" fill="#6C63FF"/>
<path d="M638.342 490.152C628.638 500.501 622.53 513.718 621.462 527.268C621.231 530.197 621.279 533.187 622.069 536.05C622.863 538.836 624.468 541.379 626.717 543.415C628.772 545.351 631.123 547.116 632.621 549.47C634.201 551.951 634.341 554.809 633.387 557.507C632.219 560.807 629.808 563.532 627.348 566.122C624.617 568.998 621.73 571.946 620.642 575.699C620.51 576.154 619.737 575.943 619.869 575.489C621.761 568.959 628.618 565.113 631.77 559.198C633.241 556.438 633.8 553.26 632.265 550.419C630.922 547.935 628.5 546.112 626.4 544.168C624.196 542.127 622.486 539.87 621.559 537.12C620.61 534.308 620.433 531.313 620.58 528.391C620.968 521.768 622.506 515.241 625.138 509.049C628.099 501.967 632.378 495.396 637.792 489.618C638.127 489.26 638.675 489.797 638.342 490.152L638.342 490.152Z" fill="white"/>
<path d="M621.552 522.847C619.041 522.358 616.803 521.079 615.24 519.238C613.676 517.396 612.888 515.113 613.015 512.794C613.022 512.7 613.068 512.611 613.145 512.547C613.222 512.483 613.324 512.449 613.429 512.451C613.533 512.453 613.633 512.492 613.707 512.559C613.78 512.627 613.822 512.717 613.823 512.812C613.7 514.97 614.434 517.097 615.894 518.809C617.354 520.522 619.444 521.706 621.785 522.148C622.294 522.245 622.058 522.943 621.552 522.847V522.847Z" fill="white"/>
<path d="M625.532 542.557C629.969 540.019 633.185 536.063 634.537 531.479C634.671 531.025 635.444 531.236 635.311 531.69C633.893 536.458 630.538 540.568 625.914 543.2C625.474 543.45 625.094 542.806 625.532 542.557Z" fill="white"/>
<path d="M628.868 502.641C629.796 503.013 630.812 503.171 631.824 503.1C632.836 503.03 633.814 502.733 634.668 502.237C635.105 501.982 635.484 502.627 635.05 502.881C634.103 503.425 633.024 503.751 631.905 503.831C630.787 503.911 629.664 503.742 628.635 503.339C628.534 503.309 628.45 503.245 628.4 503.16C628.35 503.076 628.337 502.977 628.365 502.885C628.396 502.792 628.467 502.715 628.561 502.669C628.655 502.623 628.765 502.613 628.868 502.641H628.868Z" fill="white"/>
<path d="M691.866 517.945C691.599 518.111 691.331 518.278 691.062 518.45C687.473 520.706 684.092 523.222 680.954 525.972C680.707 526.182 680.461 526.397 680.222 526.612C672.738 533.312 666.697 541.208 662.404 549.9C660.699 553.361 659.288 556.933 658.183 560.587C656.658 565.633 655.448 571.214 652.26 575.387C651.933 575.825 651.576 576.245 651.192 576.644L621.318 577.348C621.249 577.319 621.18 577.296 621.111 577.267L619.92 577.344C619.962 577.152 620.011 576.954 620.053 576.762C620.077 576.65 620.108 576.538 620.132 576.427C620.15 576.353 620.169 576.278 620.181 576.21C620.187 576.185 620.193 576.161 620.199 576.142C620.211 576.074 620.229 576.012 620.241 575.95C620.509 574.84 620.787 573.731 621.073 572.621C621.073 572.615 621.073 572.615 621.079 572.609C623.284 564.157 626.289 555.798 630.603 548.117C630.733 547.886 630.862 547.648 631.006 547.417C632.971 543.964 635.246 540.663 637.807 537.545C639.216 535.842 640.719 534.204 642.311 532.638C646.432 528.6 651.231 525.172 656.531 522.481C667.098 517.117 679.446 514.866 690.987 517.719C691.282 517.792 691.571 517.865 691.866 517.945Z" fill="#6C63FF"/>
<path d="M691.809 518.289C677.165 521.273 663.481 528.503 653.6 538.741C651.463 540.954 649.509 543.368 648.232 546.084C647.009 548.74 646.597 551.643 647.036 554.492C647.387 557.156 648.087 559.844 647.715 562.539C647.322 565.379 645.53 567.737 642.97 569.372C639.839 571.372 636.099 572.236 632.409 572.966C628.311 573.777 624.041 574.56 620.672 576.965C620.264 577.256 619.787 576.667 620.195 576.376C626.057 572.192 634.094 572.852 640.553 569.843C643.567 568.439 646.131 566.207 646.798 563.103C647.381 560.389 646.662 557.616 646.281 554.922C645.881 552.092 646.019 549.36 647.111 546.66C648.229 543.899 650.082 541.411 652.147 539.158C656.87 534.081 662.448 529.706 668.675 526.194C675.758 522.15 683.554 519.231 691.726 517.563C692.232 517.46 692.312 518.186 691.809 518.289H691.809Z" fill="white"/>
<path d="M656.617 535.26C654.937 533.504 654.003 531.266 653.982 528.945C653.96 526.624 654.853 524.372 656.499 522.591C656.834 522.231 657.468 522.684 657.133 523.044C655.596 524.7 654.765 526.798 654.79 528.959C654.815 531.12 655.694 533.202 657.269 534.829C657.61 535.183 656.956 535.612 656.617 535.26V535.26Z" fill="white"/>
<path d="M646.661 553.163C651.894 553.55 657.097 552.141 661.232 549.216C661.642 548.926 662.118 549.516 661.709 549.805C657.4 552.842 651.982 554.298 646.537 553.884C646.018 553.844 646.144 553.123 646.661 553.163H646.661Z" fill="white"/>
<path d="M675.923 523.107C676.416 523.909 677.122 524.587 677.977 525.082C678.832 525.576 679.81 525.871 680.822 525.94C681.342 525.973 681.215 526.695 680.699 526.661C679.581 526.58 678.501 526.254 677.555 525.709C676.609 525.165 675.825 524.419 675.271 523.538C675.211 523.459 675.187 523.362 675.203 523.267C675.219 523.172 675.275 523.087 675.358 523.028C675.445 522.971 675.553 522.948 675.659 522.962C675.764 522.977 675.859 523.029 675.923 523.107V523.107Z" fill="white"/>
<path d="M154.67 558.197L163.3 558.196L167.405 528.135L154.668 528.136L154.67 558.197Z" fill="#FFB6B6"/>
<path d="M123.472 558.197L132.102 558.196L136.208 528.135L123.471 528.136L123.472 558.197Z" fill="#FFB6B6"/>
<path d="M105.231 384.316L116.921 468.337L123.288 541.935H138.002L145.572 467.187L144.299 412.563L153.212 464.887L151.478 541.935H167.841L181.863 466.037L180.691 379.107L105.231 384.316Z" fill="#2F2E41"/>
<path d="M154.485 250.992H129.219L121.378 260.619L101.004 269.176L113.101 336.028L104.824 385.765C104.824 385.765 162.762 401.81 181.863 382.022C183.957 379.524 184.196 376.717 181.06 373.347L177.406 333.888L178.043 265.432L158.306 259.014L154.485 250.992V250.992Z" fill="white"/>
<path d="M86.6414 380.735L91.9131 361.539L104.476 362.729L98.1028 382.845C98.4075 383.422 98.6257 384.048 98.7364 384.713C99.3383 388.328 96.5808 391.7 92.5774 392.243C88.5739 392.787 84.8405 390.297 84.2385 386.681C83.8546 384.375 84.8408 382.172 86.6414 380.735V380.735Z" fill="#FFB6B6"/>
<g filter="url(#filter0_d_652_610)">
<path d="M107.737 267.604L98.3946 269.769C95.1549 270.02 89.6774 289.297 92.343 293.474C92.343 293.474 88.2298 327.312 90.481 330.499C92.7322 333.687 87.8174 372.314 87.8174 372.314L104.819 372.395L118.043 298.152L106.215 276.045C106.081 272.316 111.853 267.285 107.737 267.604V267.604Z" fill="white"/>
</g>
<path d="M184.017 204.114L189.604 222.199L201.489 220.758L194.829 201.827C195.101 201.272 195.289 200.673 195.373 200.039C195.835 196.594 193.115 193.462 189.3 193.046C185.484 192.63 182.017 195.085 181.556 198.531C181.262 200.729 182.265 202.795 184.017 204.114V204.114Z" fill="#FFB6B6"/>
<path d="M159.192 278.456C160.454 282.797 165.15 285.576 170.056 284.863C177.742 283.745 188.461 281.318 193.47 276.195L208.697 266.705L213.335 263.017C215.878 260.996 216.804 257.781 215.673 254.897L197.46 208.45L183.354 212.3L195.786 245.577L196.506 245.904C189.933 247.34 179.54 255.59 176.574 259.904C170.301 259.249 166.169 263.473 162.726 269.267C159.592 271.399 158.196 275.029 159.192 278.456V278.456Z" fill="white"/>
<path d="M141.702 248.321C153.666 248.321 163.364 239.562 163.364 228.758C163.364 217.954 153.666 209.195 141.702 209.195C129.738 209.195 120.04 217.954 120.04 228.758C120.04 239.562 129.738 248.321 141.702 248.321Z" fill="#FFB6B6"/>
<path d="M158.304 216.494C157.651 219.334 161.881 222.944 161.227 225.774C160.796 227.694 160.286 229.714 158.67 231.154C157.164 232.484 154.916 233.094 153.266 234.304C151.04 235.934 150.121 238.634 150.996 240.954C151.583 242.484 152.867 244.094 152.756 245.574C152.734 245.944 152.624 246.314 152.38 246.664C151.383 248.174 148.859 248.354 146.755 248.354H136.224C128.54 248.344 121.829 243.774 119.57 237.134C119.227 236.144 118.873 235.214 118.496 234.404C116.979 231.144 115.872 227.754 115.208 224.314C114.577 221.104 117.998 219.524 119.471 216.494C121.076 213.164 120.944 208.814 124.874 207.214C128.805 205.604 132.969 207.944 137.299 207.294L137.465 207.264C142.636 206.424 148.205 202.764 153.266 203.874C156.178 204.514 158.968 205.864 160.939 207.694C159.544 208.354 158.049 208.814 156.51 209.064C158.581 209.034 160.674 209.284 162.678 209.804C163.209 210.674 163.564 211.624 163.686 212.614C163.874 214.094 159.123 214.884 158.382 216.284C158.348 216.354 158.315 216.424 158.304 216.494H158.304Z" fill="#2F2E41"/>
<path d="M184.534 565.097C184.452 566.682 182.4 570.623 180.717 571.079C175.657 572.448 151.552 571.849 150.63 568.796C148.367 570.684 150.581 553.557 153.396 555.751C159.155 560.24 163.175 558.178 163.969 554.544L164.925 552.349L165.112 552.596C165.694 553.365 164.248 551.055 165.277 551C165.396 550.994 168.078 555.883 168.944 556.432L169.013 556.533C171.332 559.908 175.594 561.776 179.965 561.333C181.32 561.196 182.727 561.598 183.594 562.548C184.226 563.24 184.583 564.138 184.534 565.097V565.097Z" fill="#2F2E41"/>
<path d="M153.529 565.097C153.447 566.682 151.395 570.623 149.712 571.079C144.652 572.448 120.547 571.849 119.625 568.796C117.362 570.684 119.576 553.557 122.391 555.751C128.15 560.24 132.17 558.178 132.964 554.544L133.92 552.349L134.107 552.596C134.689 553.365 133.243 551.055 134.272 551C134.391 550.994 137.073 555.883 137.939 556.432L138.008 556.533C140.327 559.908 144.59 561.776 148.96 561.333C150.315 561.196 151.722 561.598 152.589 562.548C153.221 563.24 153.578 564.138 153.529 565.097V565.097Z" fill="#2F2E41"/>
<path d="M7.75195 572.09C7.75195 572.75 8.33886 573.28 9.06972 573.28H289.54C290.271 573.28 290.857 572.75 290.857 572.09C290.857 571.43 290.271 570.9 289.54 570.9H9.06972C8.33886 570.9 7.75195 571.43 7.75195 572.09Z" fill="#CCCCCC"/>
<path d="M616.062 578.5C616.062 579.055 616.248 579.5 616.48 579.5H705.643C705.875 579.5 706.062 579.055 706.062 578.5C706.062 577.945 705.875 577.5 705.643 577.5H616.48C616.248 577.5 616.062 577.945 616.062 578.5Z" fill="#CCCCCC"/>
<defs>
<filter id="filter0_d_652_610" x="81.8174" y="263.589" width="38.2256" height="112.805" filterUnits="userSpaceOnUse" color-interpolation-filters="sRGB">
<feFlood flood-opacity="0" result="BackgroundImageFix"/>
<feColorMatrix in="SourceAlpha" type="matrix" values="0 0 0 0 0 0 0 0 0 0 0 0 0 0 0 0 0 0 127 0" result="hardAlpha"/>
<feOffset dx="-2"/>
<feGaussianBlur stdDeviation="2"/>
<feComposite in2="hardAlpha" operator="out"/>
<feColorMatrix type="matrix" values="0 0 0 0 0 0 0 0 0 0 0 0 0 0 0 0 0 0 0.2 0"/>
<feBlend mode="normal" in2="BackgroundImageFix" result="effect1_dropShadow_652_610"/>
<feBlend mode="normal" in="SourceGraphic" in2="effect1_dropShadow_652_610" result="shape"/>
</filter>
</defs>
</svg>
