<svg width="40" height="41" viewBox="0 0 40 41" fill="none" xmlns="http://www.w3.org/2000/svg">
<path d="M7.1 31.75C9.2 30.2833 11.2833 29.1583 13.35 28.375C15.4167 27.5917 17.6333 27.2 20 27.2C22.3667 27.2 24.5917 27.5917 26.675 28.375C28.7583 29.1583 30.85 30.2833 32.95 31.75C34.4167 29.95 35.4583 28.1333 36.075 26.3C36.6917 24.4667 37 22.5333 37 20.5C37 15.6667 35.375 11.625 32.125 8.375C28.875 5.125 24.8333 3.5 20 3.5C15.1667 3.5 11.125 5.125 7.875 8.375C4.625 11.625 3 15.6667 3 20.5C3 22.5333 3.31667 24.4667 3.95 26.3C4.58333 28.1333 5.63333 29.95 7.1 31.75ZM20 22C18.0667 22 16.4417 21.3417 15.125 20.025C13.8083 18.7083 13.15 17.0833 13.15 15.15C13.15 13.2167 13.8083 11.5917 15.125 10.275C16.4417 8.95833 18.0667 8.3 20 8.3C21.9333 8.3 23.5583 8.95833 24.875 10.275C26.1917 11.5917 26.85 13.2167 26.85 15.15C26.85 17.0833 26.1917 18.7083 24.875 20.025C23.5583 21.3417 21.9333 22 20 22ZM20 40.5C17.2667 40.5 14.6833 39.975 12.25 38.925C9.81667 37.875 7.69167 36.4417 5.875 34.625C4.05833 32.8083 2.625 30.6833 1.575 28.25C0.525 25.8167 0 23.2333 0 20.5C0 17.7333 0.525 15.1417 1.575 12.725C2.625 10.3083 4.05833 8.19167 5.875 6.375C7.69167 4.55833 9.81667 3.125 12.25 2.075C14.6833 1.025 17.2667 0.5 20 0.5C22.7667 0.5 25.3583 1.025 27.775 2.075C30.1917 3.125 32.3083 4.55833 34.125 6.375C35.9417 8.19167 37.375 10.3083 38.425 12.725C39.475 15.1417 40 17.7333 40 20.5C40 23.2333 39.475 25.8167 38.425 28.25C37.375 30.6833 35.9417 32.8083 34.125 34.625C32.3083 36.4417 30.1917 37.875 27.775 38.925C25.3583 39.975 22.7667 40.5 20 40.5ZM20 37.5C21.8333 37.5 23.625 37.2333 25.375 36.7C27.125 36.1667 28.85 35.2333 30.55 33.9C28.85 32.7 27.1167 31.7833 25.35 31.15C23.5833 30.5167 21.8 30.2 20 30.2C18.2 30.2 16.4167 30.5167 14.65 31.15C12.8833 31.7833 11.15 32.7 9.45 33.9C11.15 35.2333 12.875 36.1667 14.625 36.7C16.375 37.2333 18.1667 37.5 20 37.5ZM20 19C21.1333 19 22.0583 18.6417 22.775 17.925C23.4917 17.2083 23.85 16.2833 23.85 15.15C23.85 14.0167 23.4917 13.0917 22.775 12.375C22.0583 11.6583 21.1333 11.3 20 11.3C18.8667 11.3 17.9417 11.6583 17.225 12.375C16.5083 13.0917 16.15 14.0167 16.15 15.15C16.15 16.2833 16.5083 17.2083 17.225 17.925C17.9417 18.6417 18.8667 19 20 19Z" fill="#717073"/>
</svg>
