<svg width="28" height="41" viewBox="0 0 28 41" fill="none" xmlns="http://www.w3.org/2000/svg">
<path d="M14 29.6C17.4667 26.8 20.0833 24.1083 21.85 21.525C23.6167 18.9417 24.5 16.5333 24.5 14.3C24.5 12.3333 24.1417 10.6667 23.425 9.3C22.7083 7.93333 21.825 6.81667 20.775 5.95C19.725 5.08333 18.5833 4.45833 17.35 4.075C16.1167 3.69167 15 3.5 14 3.5C13 3.5 11.8833 3.69167 10.65 4.075C9.41667 4.45833 8.275 5.08333 7.225 5.95C6.175 6.81667 5.29167 7.93333 4.575 9.3C3.85833 10.6667 3.5 12.3333 3.5 14.3C3.5 16.5333 4.38333 18.9417 6.15 21.525C7.91667 24.1083 10.5333 26.8 14 29.6ZM14 33.4C9.43333 29.9667 6.04167 26.6833 3.825 23.55C1.60833 20.4167 0.5 17.3333 0.5 14.3C0.5 12.0333 0.908334 10.0417 1.725 8.325C2.54167 6.60833 3.6 5.16667 4.9 4C6.2 2.83333 7.65 1.95833 9.25 1.375C10.85 0.791667 12.4333 0.5 14 0.5C15.5667 0.5 17.15 0.791667 18.75 1.375C20.35 1.95833 21.8 2.83333 23.1 4C24.4 5.16667 25.4583 6.60833 26.275 8.325C27.0917 10.0417 27.5 12.0333 27.5 14.3C27.5 17.3333 26.3917 20.4167 24.175 23.55C21.9583 26.6833 18.5667 29.9667 14 33.4ZM14 17.5C14.9667 17.5 15.7917 17.1583 16.475 16.475C17.1583 15.7917 17.5 14.9667 17.5 14C17.5 13.0333 17.1583 12.2083 16.475 11.525C15.7917 10.8417 14.9667 10.5 14 10.5C13.0333 10.5 12.2083 10.8417 11.525 11.525C10.8417 12.2083 10.5 13.0333 10.5 14C10.5 14.9667 10.8417 15.7917 11.525 16.475C12.2083 17.1583 13.0333 17.5 14 17.5ZM0.5 40.5V37.5H27.5V40.5H0.5Z" fill="#717073"/>
</svg>
