<svg width="185" height="1080" viewBox="0 0 185 1080" fill="none" xmlns="http://www.w3.org/2000/svg">
<path id="Vector" fill-rule="evenodd" clip-rule="evenodd" d="M96.092 1080L88.0001 1063.59C79.9081 1047.19 63.7242 1014.38 75.8621 981.57C88.0001 948.759 127.448 915.949 127.448 883.139C127.448 850.329 88.0001 817.519 100.138 786.076C112.276 753.266 176 720.456 184.092 687.646C192.184 654.835 143.632 622.025 139.586 589.215C135.54 556.405 176 523.595 180.046 490.785C184.092 457.975 151.724 425.165 119.356 392.354C88.0001 359.544 55.6322 326.734 71.8161 293.924C88.0001 262.481 151.724 229.671 163.862 196.861C176 164.051 135.54 131.24 123.402 98.4303C112.276 65.6202 127.448 32.81 135.54 16.405L143.632 -6.33001e-05H-5.0912e-06V16.405C-5.0912e-06 32.81 -5.0912e-06 65.6202 -5.0912e-06 98.4303C-5.0912e-06 131.24 -5.0912e-06 164.051 -5.0912e-06 196.861C-5.0912e-06 229.671 -5.0912e-06 262.481 -5.0912e-06 293.924C-5.0912e-06 326.734 -5.0912e-06 359.544 -5.0912e-06 392.354C-5.0912e-06 425.165 -5.0912e-06 457.975 -5.0912e-06 490.785C-5.0912e-06 523.595 -5.0912e-06 556.405 -5.0912e-06 589.215C-5.0912e-06 622.025 -5.0912e-06 654.835 -5.0912e-06 687.646C-5.0912e-06 720.456 -5.0912e-06 753.266 -5.0912e-06 786.076C-5.0912e-06 817.519 -5.0912e-06 850.329 -5.0912e-06 883.139C-5.0912e-06 915.949 -5.0912e-06 948.759 -5.0912e-06 981.57C-5.0912e-06 1014.38 -5.0912e-06 1047.19 -5.0912e-06 1063.59V1080H96.092Z" fill="white"/>
</svg>
