<?xml version="1.0" standalone="no"?>
<svg xmlns:xlink="http://www.w3.org/1999/xlink" id="wave" style="transform:rotate(180deg); transition: 0.3s" viewBox="0 0 1440 490" version="1.1" xmlns="http://www.w3.org/2000/svg"><defs><linearGradient id="sw-gradient-0" x1="0" x2="0" y1="1" y2="0"><stop stop-color="rgba(240, 240, 249, 1)" offset="0%"/><stop stop-color="rgba(240, 240, 249, 1)" offset="100%"/></linearGradient></defs><path style="transform:translate(0, 0px); opacity:1" fill="url(#sw-gradient-0)" d="M0,294L16,261.3C32,229,64,163,96,179.7C128,196,160,294,192,310.3C224,327,256,261,288,204.2C320,147,352,98,384,65.3C416,33,448,16,480,49C512,82,544,163,576,204.2C608,245,640,245,672,204.2C704,163,736,82,768,98C800,114,832,229,864,261.3C896,294,928,245,960,187.8C992,131,1024,65,1056,89.8C1088,114,1120,229,1152,277.7C1184,327,1216,310,1248,294C1280,278,1312,261,1344,220.5C1376,180,1408,114,1440,130.7C1472,147,1504,245,1536,245C1568,245,1600,147,1632,114.3C1664,82,1696,114,1728,122.5C1760,131,1792,114,1824,163.3C1856,212,1888,327,1920,367.5C1952,408,1984,376,2016,310.3C2048,245,2080,147,2112,114.3C2144,82,2176,114,2208,163.3C2240,212,2272,278,2288,310.3L2304,343L2304,490L2288,490C2272,490,2240,490,2208,490C2176,490,2144,490,2112,490C2080,490,2048,490,2016,490C1984,490,1952,490,1920,490C1888,490,1856,490,1824,490C1792,490,1760,490,1728,490C1696,490,1664,490,1632,490C1600,490,1568,490,1536,490C1504,490,1472,490,1440,490C1408,490,1376,490,1344,490C1312,490,1280,490,1248,490C1216,490,1184,490,1152,490C1120,490,1088,490,1056,490C1024,490,992,490,960,490C928,490,896,490,864,490C832,490,800,490,768,490C736,490,704,490,672,490C640,490,608,490,576,490C544,490,512,490,480,490C448,490,416,490,384,490C352,490,320,490,288,490C256,490,224,490,192,490C160,490,128,490,96,490C64,490,32,490,16,490L0,490Z"/></svg>